<?xml version="1.0" encoding="UTF-8" standalone="no"?>
<!DOCTYPE svg PUBLIC "-//W3C//DTD SVG 1.1//EN" "http://www.w3.org/Graphics/SVG/1.1/DTD/svg11.dtd">
<svg version="1.1" xmlns="http://www.w3.org/2000/svg" xmlns:xlink="http://www.w3.org/1999/xlink" preserveAspectRatio="xMidYMid meet" viewBox="0 0 640 640" width="512" height="512"><defs><path d="M451.38 429.72C357.17 294.53 485.53 178.35 409.96 0C535.45 104.52 405.53 336.18 451.38 429.72Z" id="h630OWHin4"></path><path d="M515.53 411.34C568.62 443.72 562.61 309.16 635.91 343.68C559.59 317.71 591.25 477.91 496.69 456.59C388.47 432.19 523.05 260.06 479.55 201.19C561.58 254.49 463.11 379.37 515.53 411.34Z" id="d12lkghe90"></path><path d="M473.55 471.44C602.69 487.49 568.29 338.17 632.93 343.73C573.37 350.92 609.12 507.08 475.95 511.91C330.93 517.16 186.24 296.06 4.09 383.69C160.32 259.21 373.13 458.96 473.55 471.44Z" id="ja9aiEMJj"></path></defs><g><g><g><use xlink:href="#h630OWHin4" opacity="1" fill="#00cdcd" fill-opacity="1"></use><g><use xlink:href="#h630OWHin4" opacity="1" fill-opacity="0" stroke="#000000" stroke-width="1" stroke-opacity="0"></use></g></g><g><use xlink:href="#d12lkghe90" opacity="1" fill="#00cdcd" fill-opacity="1"></use><g><use xlink:href="#d12lkghe90" opacity="1" fill-opacity="0" stroke="#000000" stroke-width="1" stroke-opacity="0"></use></g></g><g><use xlink:href="#ja9aiEMJj" opacity="1" fill="#00cdcd" fill-opacity="1"></use><g><use xlink:href="#ja9aiEMJj" opacity="1" fill-opacity="0" stroke="#000000" stroke-width="1" stroke-opacity="0"></use></g></g></g></g></svg>